<?xml version="1.0" standalone="no"?>
<!DOCTYPE svg PUBLIC "-//W3C//DTD SVG 20010904//EN"
 "http://www.w3.org/TR/2001/REC-SVG-20010904/DTD/svg10.dtd">
<svg version="1.0" xmlns="http://www.w3.org/2000/svg"
 width="656.000000pt" height="656.000000pt" viewBox="0 0 656.000000 656.000000"
 preserveAspectRatio="xMidYMid meet">
<metadata>
Created by potrace 1.14, written by Peter Selinger 2001-2017
</metadata>
<g transform="translate(0.000000,656.000000) scale(0.100000,-0.100000)"
fill="#000000" stroke="none">
<path d="M2105 6464 c-197 -28 -269 -49 -440 -133 -90 -45 -147 -81 -240 -153
-27 -21 -342 -330 -698 -686 l-648 -646 2 -341 c1 -306 5 -394 23 -475 3 -14
9 -41 12 -60 19 -100 141 -387 184 -430 3 -3 21 -27 40 -55 35 -50 72 -94 143
-168 l39 -40 -45 -46 c-90 -94 -187 -218 -187 -241 0 -4 -4 -10 -8 -12 -7 -3
-93 -154 -91 -160 0 -3 -8 -26 -32 -90 -16 -42 -47 -158 -65 -248 -4 -19 -9
-201 -11 -403 l-5 -368 654 -652 c359 -359 680 -673 713 -698 61 -45 161 -109
171 -109 3 0 18 -8 32 -18 28 -19 184 -83 237 -97 17 -5 35 -10 40 -11 16 -6
108 -25 135 -28 14 -2 50 -7 80 -11 30 -4 58 -9 63 -12 4 -2 7 0 7 6 0 6 6 8
13 6 24 -10 83 -11 105 -3 17 6 21 5 16 -4 -4 -6 -3 -9 2 -5 5 3 37 8 71 12
70 7 73 7 166 29 116 27 213 64 323 121 58 31 111 60 117 65 7 6 42 33 79 60
37 27 89 72 117 100 28 27 55 50 61 50 6 0 32 -21 59 -47 173 -173 425 -306
672 -357 163 -33 265 -36 489 -11 92 10 364 99 401 131 8 8 20 14 25 14 11 0
164 95 173 107 3 5 24 21 46 38 22 16 332 320 688 676 l648 647 -2 351 c0 193
-5 369 -10 392 -5 22 -12 59 -14 82 -6 44 -9 55 -51 182 -23 69 -43 114 -108
242 -6 13 -14 23 -18 23 -5 0 -8 5 -8 12 0 6 -24 43 -54 83 -59 78 -60 79
-130 152 l-48 51 53 54 c63 63 169 199 169 216 0 7 4 12 9 12 7 0 87 154 121
235 17 39 58 181 65 225 4 25 10 54 13 65 3 11 7 187 9 390 l4 370 -648 647
c-713 711 -689 688 -778 745 -27 18 -55 37 -61 42 -17 14 -146 78 -207 102
-63 26 -169 57 -217 65 -19 3 -38 8 -41 10 -26 16 -303 23 -414 11 -157 -18
-464 -122 -505 -172 -7 -8 -21 -15 -31 -15 -11 0 -19 -4 -19 -8 0 -4 -15 -16
-32 -26 -41 -24 -117 -86 -186 -151 -29 -27 -57 -50 -62 -50 -5 0 -33 23 -62
51 -60 57 -165 141 -218 173 -106 64 -319 155 -385 164 -11 1 -24 5 -30 9 -5
3 -32 9 -60 13 -27 4 -61 9 -75 11 -66 11 -265 9 -345 -2z m285 -708 c157 -30
276 -101 393 -234 15 -18 27 -36 27 -41 0 -5 4 -11 8 -13 9 -3 65 -118 76
-155 23 -73 27 -124 29 -306 l2 -159 -527 -526 c-289 -290 -535 -534 -545
-542 -34 -27 -77 -55 -108 -70 -16 -8 -32 -17 -35 -20 -7 -7 -105 -37 -150
-46 -45 -9 -183 -9 -236 -1 -185 30 -377 174 -463 349 -54 110 -63 156 -68
365 l-5 192 533 534 c294 293 556 548 582 566 89 61 258 124 287 106 5 -3 10
-2 10 3 0 9 136 8 190 -2z m2010 0 c97 -19 176 -52 260 -110 25 -16 285 -270
578 -563 l533 -532 -1 -165 c-2 -189 -16 -274 -62 -374 -88 -191 -268 -331
-475 -369 -49 -9 -186 -8 -238 2 -88 16 -211 73 -278 128 -23 19 -276 269
-562 555 l-521 521 2 178 c2 145 6 193 23 257 67 253 276 436 546 479 31 5
156 0 195 -7z m-657 -2023 l457 -456 -460 -460 -460 -459 -460 459 -459 460
457 456 c251 252 459 457 463 457 3 0 211 -205 462 -457z m-2285 -814 c37 22
291 -56 340 -105 7 -8 18 -14 24 -14 6 0 257 -246 558 -547 l547 -548 -2 -175
c-2 -124 -7 -194 -19 -240 -18 -74 -45 -141 -61 -152 -5 -4 -6 -8 -2 -8 16 0
-77 -122 -128 -168 -69 -62 -164 -118 -250 -145 -55 -17 -94 -22 -185 -22
-149 0 -199 12 -323 77 -52 27 -149 119 -615 582 l-553 551 2 177 c2 134 7
194 21 248 51 198 188 359 369 436 65 27 178 58 186 50 2 -2 16 -1 31 4 15 4
32 4 37 -1 6 -4 16 -4 23 0z m3712 2 c0 4 12 4 28 -1 15 -5 41 -11 57 -14 137
-22 285 -116 380 -241 54 -72 107 -186 122 -265 3 -14 7 -108 10 -210 l5 -185
-529 -527 c-290 -290 -539 -537 -553 -548 -14 -11 -31 -24 -38 -30 -27 -24
-161 -80 -222 -94 -80 -19 -261 -15 -320 7 -8 3 -30 10 -49 16 -129 41 -280
174 -347 306 -23 44 -45 94 -49 110 -5 17 -9 32 -10 35 -11 40 -19 145 -20
270 l-1 155 531 530 c291 292 548 545 570 561 79 61 199 108 306 120 30 3 55
7 57 9 2 1 19 -1 38 -5 18 -4 34 -4 34 1z"/>
</g>
</svg>
